<svg xmlns="http://www.w3.org/2000/svg" xmlns:xlink="http://www.w3.org/1999/xlink" width="500" zoomAndPan="magnify" viewBox="0 0 375 374.999991" height="500" preserveAspectRatio="xMidYMid meet" version="1.0"><defs><g/><clipPath id="a71bbe4871"><path d="M 217 124 L 325 124 L 325 227 L 217 227 Z M 217 124 " clip-rule="nonzero"/></clipPath><clipPath id="03b3d4fac0"><path d="M 192.132812 201.574219 L 269.5625 124.144531 L 348.582031 203.164062 L 271.152344 280.589844 Z M 192.132812 201.574219 " clip-rule="nonzero"/></clipPath><clipPath id="30dc351c4d"><path d="M 34.066406 43.507812 L 271.125 -193.550781 L 508.183594 43.507812 L 271.125 280.5625 Z M 34.066406 43.507812 " clip-rule="nonzero"/></clipPath><clipPath id="e3eb10b08c"><path d="M 237.542969 226.945312 C 237.644531 221.355469 238.324219 215.839844 239.582031 210.394531 C 240.84375 204.949219 242.65625 199.695312 245.019531 194.632812 L 296.382812 194.632812 C 298.746094 199.695312 300.558594 204.949219 301.820312 210.394531 C 303.078125 215.839844 303.757812 221.355469 303.859375 226.945312 L 323.898438 226.945312 C 323.757812 193.503906 303.71875 163.871094 282.976562 135.226562 C 303.71875 106.582031 323.757812 76.949219 323.898438 43.507812 C 323.609375 39.078125 323.140625 34.671875 322.492188 30.285156 C 321.84375 25.894531 321.015625 21.539062 320.007812 17.21875 C 319 12.898438 317.816406 8.628906 316.457031 4.40625 C 315.097656 0.183594 313.566406 -3.976562 311.867188 -8.074219 C 310.164062 -12.171875 308.296875 -16.191406 306.265625 -20.136719 C 304.234375 -24.082031 302.042969 -27.933594 299.695312 -31.699219 C 297.347656 -35.460938 294.847656 -39.121094 292.199219 -42.679688 C 289.546875 -46.238281 286.757812 -49.679688 283.824219 -53.007812 C 304.144531 -79.539062 324.460938 -107.195312 324.601562 -140.636719 L 304.566406 -140.636719 C 304.421875 -135.023438 303.667969 -129.488281 302.3125 -124.039062 C 300.957031 -118.589844 299.027344 -113.351562 296.523438 -108.324219 L 245.585938 -107.617188 C 242.992188 -112.613281 241.019531 -117.839844 239.660156 -123.300781 C 238.300781 -128.761719 237.59375 -134.304688 237.542969 -139.929688 L 217.503906 -139.929688 C 217.503906 -106.628906 237.824219 -78.972656 258.144531 -52.164062 C 255.203125 -48.847656 252.40625 -45.417969 249.75 -41.871094 C 247.097656 -38.324219 244.59375 -34.671875 242.242188 -30.917969 C 239.890625 -27.160156 237.703125 -23.3125 235.671875 -19.375 C 233.640625 -15.4375 231.777344 -11.421875 230.082031 -7.328125 C 228.386719 -3.234375 226.863281 0.921875 225.511719 5.140625 C 224.164062 9.359375 222.992188 13.628906 221.996094 17.945312 C 221.003906 22.265625 220.1875 26.617188 219.554688 31 C 218.925781 35.386719 218.476562 39.789062 218.210938 44.210938 C 217.503906 76.808594 237.964844 106.296875 258.425781 135.226562 C 238.386719 163.164062 217.503906 193.644531 217.503906 226.945312 Z M 255.601562 174.734375 C 260.257812 167.257812 265.199219 159.777344 270.699219 152.300781 C 275.921875 159.777344 281.144531 167.257812 285.660156 174.59375 Z M 270.277344 117.726562 C 261.660156 106.144531 253.996094 93.960938 247.277344 81.183594 L 293.136719 81.039062 C 286.453125 93.851562 278.832031 106.082031 270.277344 117.726562 Z M 295.113281 4.84375 L 245.585938 5.550781 C 252.402344 -9.132812 260.777344 -22.867188 270.699219 -35.652344 C 280.476562 -22.921875 288.753906 -9.28125 295.535156 5.265625 Z M 283.824219 -88.003906 L 270.277344 -69.09375 C 265.480469 -75.585938 260.964844 -81.796875 256.730469 -88.003906 Z M 239.65625 25.585938 L 301.746094 25.304688 C 303.023438 31.304688 303.730469 37.371094 303.859375 43.507812 C 303.679688 49.585938 302.785156 55.558594 301.179688 61.425781 L 240.082031 61.566406 C 238.402344 55.664062 237.554688 49.644531 237.542969 43.507812 C 237.59375 37.457031 238.300781 31.484375 239.65625 25.585938 Z M 239.65625 25.585938 " clip-rule="nonzero"/></clipPath><linearGradient x1="0.000000338246" gradientTransform="matrix(14.110569, -14.110569, 14.110569, 14.110569, 34.066937, 43.506779)" y1="8.38" x2="7.437651" gradientUnits="userSpaceOnUse" y2="8.38" id="339861dc9f"><stop stop-opacity="1" stop-color="rgb(0%, 28.999329%, 67.799377%)" offset="0"/><stop stop-opacity="1" stop-color="rgb(0.119019%, 29.138184%, 67.912292%)" offset="0.0078125"/><stop stop-opacity="1" stop-color="rgb(0.357056%, 29.414368%, 68.139648%)" offset="0.015625"/><stop stop-opacity="1" stop-color="rgb(0.595093%, 29.692078%, 68.36853%)" offset="0.0234375"/><stop stop-opacity="1" stop-color="rgb(0.83313%, 29.969788%, 68.595886%)" offset="0.03125"/><stop stop-opacity="1" stop-color="rgb(1.071167%, 30.245972%, 68.823242%)" offset="0.0390625"/><stop stop-opacity="1" stop-color="rgb(1.309204%, 30.523682%, 69.050598%)" offset="0.046875"/><stop stop-opacity="1" stop-color="rgb(1.548767%, 30.801392%, 69.277954%)" offset="0.0546875"/><stop stop-opacity="1" stop-color="rgb(1.786804%, 31.077576%, 69.506836%)" offset="0.0625"/><stop stop-opacity="1" stop-color="rgb(2.024841%, 31.355286%, 69.734192%)" offset="0.0703125"/><stop stop-opacity="1" stop-color="rgb(2.262878%, 31.632996%, 69.961548%)" offset="0.078125"/><stop stop-opacity="1" stop-color="rgb(2.500916%, 31.90918%, 70.188904%)" offset="0.0859375"/><stop stop-opacity="1" stop-color="rgb(2.738953%, 32.18689%, 70.417786%)" offset="0.09375"/><stop stop-opacity="1" stop-color="rgb(2.978516%, 32.4646%, 70.645142%)" offset="0.101563"/><stop stop-opacity="1" stop-color="rgb(3.216553%, 32.740784%, 70.872498%)" offset="0.109375"/><stop stop-opacity="1" stop-color="rgb(3.45459%, 33.018494%, 71.099854%)" offset="0.117188"/><stop stop-opacity="1" stop-color="rgb(3.692627%, 33.296204%, 71.327209%)" offset="0.125"/><stop stop-opacity="1" stop-color="rgb(3.930664%, 33.572388%, 71.556091%)" offset="0.132813"/><stop stop-opacity="1" stop-color="rgb(4.168701%, 33.850098%, 71.783447%)" offset="0.140625"/><stop stop-opacity="1" stop-color="rgb(4.408264%, 34.127808%, 72.010803%)" offset="0.148438"/><stop stop-opacity="1" stop-color="rgb(4.646301%, 34.403992%, 72.238159%)" offset="0.15625"/><stop stop-opacity="1" stop-color="rgb(4.884338%, 34.681702%, 72.467041%)" offset="0.164063"/><stop stop-opacity="1" stop-color="rgb(5.122375%, 34.957886%, 72.694397%)" offset="0.171875"/><stop stop-opacity="1" stop-color="rgb(5.360413%, 35.235596%, 72.921753%)" offset="0.179688"/><stop stop-opacity="1" stop-color="rgb(5.59845%, 35.513306%, 73.149109%)" offset="0.1875"/><stop stop-opacity="1" stop-color="rgb(5.838013%, 35.78949%, 73.376465%)" offset="0.195313"/><stop stop-opacity="1" stop-color="rgb(6.07605%, 36.0672%, 73.605347%)" offset="0.203125"/><stop stop-opacity="1" stop-color="rgb(6.314087%, 36.34491%, 73.832703%)" offset="0.210938"/><stop stop-opacity="1" stop-color="rgb(6.552124%, 36.621094%, 74.060059%)" offset="0.21875"/><stop stop-opacity="1" stop-color="rgb(6.790161%, 36.898804%, 74.287415%)" offset="0.226563"/><stop stop-opacity="1" stop-color="rgb(7.029724%, 37.176514%, 74.516296%)" offset="0.234375"/><stop stop-opacity="1" stop-color="rgb(7.267761%, 37.452698%, 74.743652%)" offset="0.242188"/><stop stop-opacity="1" stop-color="rgb(7.505798%, 37.730408%, 74.971008%)" offset="0.25"/><stop stop-opacity="1" stop-color="rgb(7.743835%, 38.008118%, 75.198364%)" offset="0.257813"/><stop stop-opacity="1" stop-color="rgb(7.981873%, 38.284302%, 75.42572%)" offset="0.265625"/><stop stop-opacity="1" stop-color="rgb(8.21991%, 38.562012%, 75.654602%)" offset="0.273438"/><stop stop-opacity="1" stop-color="rgb(8.459473%, 38.839722%, 75.881958%)" offset="0.28125"/><stop stop-opacity="1" stop-color="rgb(8.69751%, 39.115906%, 76.109314%)" offset="0.289062"/><stop stop-opacity="1" stop-color="rgb(8.935547%, 39.393616%, 76.33667%)" offset="0.296875"/><stop stop-opacity="1" stop-color="rgb(9.173584%, 39.671326%, 76.565552%)" offset="0.304688"/><stop stop-opacity="1" stop-color="rgb(9.411621%, 39.94751%, 76.792908%)" offset="0.3125"/><stop stop-opacity="1" stop-color="rgb(9.649658%, 40.22522%, 77.020264%)" offset="0.320312"/><stop stop-opacity="1" stop-color="rgb(9.889221%, 40.50293%, 77.24762%)" offset="0.328125"/><stop stop-opacity="1" stop-color="rgb(10.127258%, 40.779114%, 77.474976%)" offset="0.335938"/><stop stop-opacity="1" stop-color="rgb(10.365295%, 41.056824%, 77.703857%)" offset="0.34375"/><stop stop-opacity="1" stop-color="rgb(10.603333%, 41.334534%, 77.931213%)" offset="0.351562"/><stop stop-opacity="1" stop-color="rgb(10.84137%, 41.610718%, 78.158569%)" offset="0.359375"/><stop stop-opacity="1" stop-color="rgb(11.079407%, 41.888428%, 78.385925%)" offset="0.367188"/><stop stop-opacity="1" stop-color="rgb(11.31897%, 42.166138%, 78.614807%)" offset="0.375"/><stop stop-opacity="1" stop-color="rgb(11.557007%, 42.442322%, 78.842163%)" offset="0.382812"/><stop stop-opacity="1" stop-color="rgb(11.795044%, 42.720032%, 79.069519%)" offset="0.390625"/><stop stop-opacity="1" stop-color="rgb(12.033081%, 42.997742%, 79.296875%)" offset="0.398438"/><stop stop-opacity="1" stop-color="rgb(12.271118%, 43.273926%, 79.524231%)" offset="0.40625"/><stop stop-opacity="1" stop-color="rgb(12.510681%, 43.551636%, 79.753113%)" offset="0.414062"/><stop stop-opacity="1" stop-color="rgb(12.748718%, 43.829346%, 79.980469%)" offset="0.421875"/><stop stop-opacity="1" stop-color="rgb(12.986755%, 44.10553%, 80.207825%)" offset="0.429688"/><stop stop-opacity="1" stop-color="rgb(13.224792%, 44.38324%, 80.435181%)" offset="0.4375"/><stop stop-opacity="1" stop-color="rgb(13.46283%, 44.66095%, 80.664062%)" offset="0.445312"/><stop stop-opacity="1" stop-color="rgb(13.700867%, 44.937134%, 80.891418%)" offset="0.453125"/><stop stop-opacity="1" stop-color="rgb(13.94043%, 45.214844%, 81.118774%)" offset="0.460938"/><stop stop-opacity="1" stop-color="rgb(14.178467%, 45.492554%, 81.34613%)" offset="0.46875"/><stop stop-opacity="1" stop-color="rgb(14.416504%, 45.768738%, 81.573486%)" offset="0.476562"/><stop stop-opacity="1" stop-color="rgb(14.654541%, 46.046448%, 81.802368%)" offset="0.484375"/><stop stop-opacity="1" stop-color="rgb(14.892578%, 46.324158%, 82.029724%)" offset="0.492188"/><stop stop-opacity="1" stop-color="rgb(15.130615%, 46.600342%, 82.25708%)" offset="0.5"/><stop stop-opacity="1" stop-color="rgb(15.370178%, 46.878052%, 82.484436%)" offset="0.507812"/><stop stop-opacity="1" stop-color="rgb(15.608215%, 47.155762%, 82.713318%)" offset="0.515625"/><stop stop-opacity="1" stop-color="rgb(15.846252%, 47.431946%, 82.940674%)" offset="0.523438"/><stop stop-opacity="1" stop-color="rgb(16.08429%, 47.709656%, 83.16803%)" offset="0.53125"/><stop stop-opacity="1" stop-color="rgb(16.322327%, 47.987366%, 83.395386%)" offset="0.539062"/><stop stop-opacity="1" stop-color="rgb(16.560364%, 48.26355%, 83.622742%)" offset="0.546875"/><stop stop-opacity="1" stop-color="rgb(16.799927%, 48.54126%, 83.851624%)" offset="0.554688"/><stop stop-opacity="1" stop-color="rgb(17.037964%, 48.81897%, 84.078979%)" offset="0.5625"/><stop stop-opacity="1" stop-color="rgb(17.276001%, 49.095154%, 84.306335%)" offset="0.570312"/><stop stop-opacity="1" stop-color="rgb(17.514038%, 49.372864%, 84.533691%)" offset="0.578125"/><stop stop-opacity="1" stop-color="rgb(17.752075%, 49.650574%, 84.762573%)" offset="0.585938"/><stop stop-opacity="1" stop-color="rgb(17.990112%, 49.926758%, 84.989929%)" offset="0.59375"/><stop stop-opacity="1" stop-color="rgb(18.229675%, 50.204468%, 85.217285%)" offset="0.601563"/><stop stop-opacity="1" stop-color="rgb(18.467712%, 50.482178%, 85.444641%)" offset="0.609375"/><stop stop-opacity="1" stop-color="rgb(18.70575%, 50.758362%, 85.671997%)" offset="0.617188"/><stop stop-opacity="1" stop-color="rgb(18.943787%, 51.036072%, 85.900879%)" offset="0.625"/><stop stop-opacity="1" stop-color="rgb(19.181824%, 51.313782%, 86.128235%)" offset="0.632812"/><stop stop-opacity="1" stop-color="rgb(19.421387%, 51.589966%, 86.355591%)" offset="0.640625"/><stop stop-opacity="1" stop-color="rgb(19.659424%, 51.867676%, 86.582947%)" offset="0.648437"/><stop stop-opacity="1" stop-color="rgb(19.897461%, 52.14386%, 86.811829%)" offset="0.65625"/><stop stop-opacity="1" stop-color="rgb(20.135498%, 52.42157%, 87.039185%)" offset="0.664062"/><stop stop-opacity="1" stop-color="rgb(20.373535%, 52.69928%, 87.266541%)" offset="0.671875"/><stop stop-opacity="1" stop-color="rgb(20.611572%, 52.975464%, 87.493896%)" offset="0.679688"/><stop stop-opacity="1" stop-color="rgb(20.851135%, 53.253174%, 87.721252%)" offset="0.6875"/><stop stop-opacity="1" stop-color="rgb(21.089172%, 53.530884%, 87.950134%)" offset="0.695312"/><stop stop-opacity="1" stop-color="rgb(21.327209%, 53.807068%, 88.17749%)" offset="0.703125"/><stop stop-opacity="1" stop-color="rgb(21.565247%, 54.084778%, 88.404846%)" offset="0.710938"/><stop stop-opacity="1" stop-color="rgb(21.803284%, 54.362488%, 88.632202%)" offset="0.71875"/><stop stop-opacity="1" stop-color="rgb(22.041321%, 54.638672%, 88.861084%)" offset="0.726563"/><stop stop-opacity="1" stop-color="rgb(22.280884%, 54.916382%, 89.08844%)" offset="0.734375"/><stop stop-opacity="1" stop-color="rgb(22.518921%, 55.194092%, 89.315796%)" offset="0.742188"/><stop stop-opacity="1" stop-color="rgb(22.756958%, 55.470276%, 89.543152%)" offset="0.75"/><stop stop-opacity="1" stop-color="rgb(22.994995%, 55.747986%, 89.770508%)" offset="0.757812"/><stop stop-opacity="1" stop-color="rgb(23.233032%, 56.025696%, 89.99939%)" offset="0.765625"/><stop stop-opacity="1" stop-color="rgb(23.471069%, 56.30188%, 90.226746%)" offset="0.773437"/><stop stop-opacity="1" stop-color="rgb(23.710632%, 56.57959%, 90.454102%)" offset="0.78125"/><stop stop-opacity="1" stop-color="rgb(23.948669%, 56.8573%, 90.681458%)" offset="0.789062"/><stop stop-opacity="1" stop-color="rgb(24.186707%, 57.133484%, 90.910339%)" offset="0.796875"/><stop stop-opacity="1" stop-color="rgb(24.424744%, 57.411194%, 91.137695%)" offset="0.804688"/><stop stop-opacity="1" stop-color="rgb(24.662781%, 57.688904%, 91.365051%)" offset="0.8125"/><stop stop-opacity="1" stop-color="rgb(24.902344%, 57.965088%, 91.592407%)" offset="0.820312"/><stop stop-opacity="1" stop-color="rgb(25.140381%, 58.242798%, 91.819763%)" offset="0.828125"/><stop stop-opacity="1" stop-color="rgb(25.378418%, 58.520508%, 92.048645%)" offset="0.835938"/><stop stop-opacity="1" stop-color="rgb(25.616455%, 58.796692%, 92.276001%)" offset="0.84375"/><stop stop-opacity="1" stop-color="rgb(25.854492%, 59.074402%, 92.503357%)" offset="0.851563"/><stop stop-opacity="1" stop-color="rgb(26.092529%, 59.352112%, 92.730713%)" offset="0.859375"/><stop stop-opacity="1" stop-color="rgb(26.332092%, 59.628296%, 92.959595%)" offset="0.867188"/><stop stop-opacity="1" stop-color="rgb(26.570129%, 59.906006%, 93.186951%)" offset="0.875"/><stop stop-opacity="1" stop-color="rgb(26.808167%, 60.183716%, 93.414307%)" offset="0.882812"/><stop stop-opacity="1" stop-color="rgb(27.046204%, 60.4599%, 93.641663%)" offset="0.890625"/><stop stop-opacity="1" stop-color="rgb(27.284241%, 60.73761%, 93.869019%)" offset="0.898437"/><stop stop-opacity="1" stop-color="rgb(27.522278%, 61.01532%, 94.0979%)" offset="0.90625"/><stop stop-opacity="1" stop-color="rgb(27.761841%, 61.291504%, 94.325256%)" offset="0.914062"/><stop stop-opacity="1" stop-color="rgb(27.999878%, 61.569214%, 94.552612%)" offset="0.921875"/><stop stop-opacity="1" stop-color="rgb(28.237915%, 61.846924%, 94.779968%)" offset="0.929688"/><stop stop-opacity="1" stop-color="rgb(28.475952%, 62.123108%, 95.00885%)" offset="0.9375"/><stop stop-opacity="1" stop-color="rgb(28.713989%, 62.400818%, 95.236206%)" offset="0.945312"/><stop stop-opacity="1" stop-color="rgb(28.952026%, 62.678528%, 95.463562%)" offset="0.953125"/><stop stop-opacity="1" stop-color="rgb(29.191589%, 62.954712%, 95.690918%)" offset="0.960938"/><stop stop-opacity="1" stop-color="rgb(29.429626%, 63.232422%, 95.918274%)" offset="0.96875"/><stop stop-opacity="1" stop-color="rgb(29.667664%, 63.510132%, 96.147156%)" offset="0.976563"/><stop stop-opacity="1" stop-color="rgb(29.905701%, 63.786316%, 96.374512%)" offset="0.984375"/><stop stop-opacity="1" stop-color="rgb(30.143738%, 64.064026%, 96.601868%)" offset="0.992188"/><stop stop-opacity="1" stop-color="rgb(30.381775%, 64.341736%, 96.829224%)" offset="1"/></linearGradient><clipPath id="62c28ba5a9"><path d="M 243 0 L 298 0 L 298 138 L 243 138 Z M 243 0 " clip-rule="nonzero"/></clipPath><clipPath id="a4d9016cb0"><path d="M 184.445312 51.894531 L 270.359375 -34.019531 L 355.742188 51.367188 L 269.828125 137.277344 Z M 184.445312 51.894531 " clip-rule="nonzero"/></clipPath><clipPath id="5c7af47e42"><path d="M 149.703125 86.636719 L 270.621094 -34.277344 L 391.535156 86.636719 L 270.621094 207.550781 Z M 149.703125 86.636719 " clip-rule="nonzero"/></clipPath><clipPath id="ede35dff40"><path d="M 253.417969 180.136719 C 253.523438 174.378906 254.792969 168.886719 257.230469 163.667969 L 283.410156 163.667969 C 285.847656 168.886719 287.117188 174.378906 287.222656 180.136719 L 297.4375 180.136719 C 297.363281 163.09375 287.152344 147.988281 276.578125 133.386719 C 287.152344 118.785156 297.363281 103.683594 297.4375 86.636719 C 297.144531 82.117188 296.480469 77.648438 295.453125 73.238281 C 294.421875 68.824219 293.039062 64.527344 291.304688 60.34375 C 289.566406 56.160156 287.496094 52.148438 285.097656 48.304688 C 282.703125 44.460938 280.003906 40.839844 277.007812 37.441406 C 287.367188 23.917969 297.722656 9.820312 297.796875 -7.222656 L 287.582031 -7.222656 C 287.429688 -1.429688 286.066406 4.058594 283.484375 9.246094 L 257.519531 9.605469 C 254.839844 4.441406 253.472656 -1.046875 253.417969 -6.863281 L 243.207031 -6.863281 C 243.207031 10.109375 253.5625 24.207031 263.917969 37.871094 C 260.917969 41.257812 258.214844 44.867188 255.816406 48.703125 C 253.414062 52.539062 251.347656 56.542969 249.617188 60.726562 C 247.882812 64.90625 246.511719 69.199219 245.496094 73.609375 C 244.480469 78.015625 243.835938 82.480469 243.566406 86.996094 C 243.207031 103.609375 253.632812 118.644531 264.0625 133.386719 C 253.851562 147.628906 243.207031 163.164062 243.207031 180.136719 Z M 262.625 153.527344 C 265 149.714844 267.515625 145.902344 270.320312 142.089844 C 272.980469 145.902344 275.644531 149.714844 277.945312 153.453125 Z M 270.105469 124.46875 C 265.710938 118.5625 261.804688 112.355469 258.382812 105.839844 L 281.757812 105.769531 C 278.351562 112.300781 274.464844 118.53125 270.105469 124.46875 Z M 282.761719 66.929688 L 257.519531 67.289062 C 260.992188 59.804688 265.261719 52.804688 270.320312 46.289062 C 275.300781 52.777344 279.523438 59.730469 282.980469 67.144531 Z M 277.007812 19.601562 L 270.105469 29.242188 C 267.660156 25.933594 265.359375 22.769531 263.199219 19.601562 Z M 254.496094 77.503906 L 286.144531 77.359375 C 286.796875 80.417969 287.15625 83.511719 287.222656 86.636719 C 287.128906 89.734375 286.675781 92.78125 285.855469 95.769531 L 254.714844 95.84375 C 253.855469 92.832031 253.425781 89.765625 253.417969 86.636719 C 253.445312 83.550781 253.804688 80.507812 254.496094 77.503906 Z M 254.496094 77.503906 " clip-rule="nonzero"/></clipPath><linearGradient x1="2.979452" gradientTransform="matrix(7.192405, -7.192405, 7.192405, 7.192405, 149.70395, 86.636598)" y1="8.38" x2="16.317782" gradientUnits="userSpaceOnUse" y2="8.38" id="77f2e0d17d"><stop stop-opacity="1" stop-color="rgb(12.217712%, 43.212891%, 79.473877%)" offset="0"/><stop stop-opacity="1" stop-color="rgb(12.431335%, 43.461609%, 79.678345%)" offset="0.00390625"/><stop stop-opacity="1" stop-color="rgb(12.644958%, 43.710327%, 79.882812%)" offset="0.0078125"/><stop stop-opacity="1" stop-color="rgb(12.858582%, 43.95752%, 80.08728%)" offset="0.0117187"/><stop stop-opacity="1" stop-color="rgb(13.07373%, 44.206238%, 80.291748%)" offset="0.015625"/><stop stop-opacity="1" stop-color="rgb(13.287354%, 44.454956%, 80.49469%)" offset="0.0195312"/><stop stop-opacity="1" stop-color="rgb(13.500977%, 44.703674%, 80.699158%)" offset="0.0234375"/><stop stop-opacity="1" stop-color="rgb(13.7146%, 44.952393%, 80.903625%)" offset="0.0273437"/><stop stop-opacity="1" stop-color="rgb(13.928223%, 45.201111%, 81.108093%)" offset="0.03125"/><stop stop-opacity="1" stop-color="rgb(14.141846%, 45.449829%, 81.311035%)" offset="0.0351562"/><stop stop-opacity="1" stop-color="rgb(14.355469%, 45.698547%, 81.515503%)" offset="0.0390625"/><stop stop-opacity="1" stop-color="rgb(14.569092%, 45.94574%, 81.719971%)" offset="0.0429687"/><stop stop-opacity="1" stop-color="rgb(14.782715%, 46.194458%, 81.924438%)" offset="0.046875"/><stop stop-opacity="1" stop-color="rgb(14.996338%, 46.443176%, 82.128906%)" offset="0.0507812"/><stop stop-opacity="1" stop-color="rgb(15.209961%, 46.691895%, 82.333374%)" offset="0.0546875"/><stop stop-opacity="1" stop-color="rgb(15.423584%, 46.940613%, 82.536316%)" offset="0.0585938"/><stop stop-opacity="1" stop-color="rgb(15.637207%, 47.189331%, 82.740784%)" offset="0.0625"/><stop stop-opacity="1" stop-color="rgb(15.85083%, 47.438049%, 82.945251%)" offset="0.0664062"/><stop stop-opacity="1" stop-color="rgb(16.064453%, 47.686768%, 83.149719%)" offset="0.0703125"/><stop stop-opacity="1" stop-color="rgb(16.278076%, 47.935486%, 83.352661%)" offset="0.0742188"/><stop stop-opacity="1" stop-color="rgb(16.491699%, 48.184204%, 83.557129%)" offset="0.078125"/><stop stop-opacity="1" stop-color="rgb(16.705322%, 48.431396%, 83.761597%)" offset="0.0820313"/><stop stop-opacity="1" stop-color="rgb(16.918945%, 48.680115%, 83.966064%)" offset="0.0859375"/><stop stop-opacity="1" stop-color="rgb(17.132568%, 48.928833%, 84.170532%)" offset="0.0898438"/><stop stop-opacity="1" stop-color="rgb(17.346191%, 49.177551%, 84.375%)" offset="0.09375"/><stop stop-opacity="1" stop-color="rgb(17.559814%, 49.42627%, 84.577942%)" offset="0.0976563"/><stop stop-opacity="1" stop-color="rgb(17.773438%, 49.674988%, 84.78241%)" offset="0.101563"/><stop stop-opacity="1" stop-color="rgb(17.987061%, 49.923706%, 84.986877%)" offset="0.105469"/><stop stop-opacity="1" stop-color="rgb(18.200684%, 50.172424%, 85.191345%)" offset="0.109375"/><stop stop-opacity="1" stop-color="rgb(18.414307%, 50.419617%, 85.394287%)" offset="0.113281"/><stop stop-opacity="1" stop-color="rgb(18.62793%, 50.668335%, 85.598755%)" offset="0.117188"/><stop stop-opacity="1" stop-color="rgb(18.841553%, 50.917053%, 85.803223%)" offset="0.121094"/><stop stop-opacity="1" stop-color="rgb(19.056702%, 51.165771%, 86.00769%)" offset="0.125"/><stop stop-opacity="1" stop-color="rgb(19.270325%, 51.41449%, 86.212158%)" offset="0.128906"/><stop stop-opacity="1" stop-color="rgb(19.483948%, 51.663208%, 86.416626%)" offset="0.132812"/><stop stop-opacity="1" stop-color="rgb(19.697571%, 51.911926%, 86.619568%)" offset="0.136719"/><stop stop-opacity="1" stop-color="rgb(19.911194%, 52.160645%, 86.824036%)" offset="0.140625"/><stop stop-opacity="1" stop-color="rgb(20.124817%, 52.409363%, 87.028503%)" offset="0.144531"/><stop stop-opacity="1" stop-color="rgb(20.33844%, 52.658081%, 87.232971%)" offset="0.148437"/><stop stop-opacity="1" stop-color="rgb(20.552063%, 52.905273%, 87.435913%)" offset="0.152344"/><stop stop-opacity="1" stop-color="rgb(20.765686%, 53.153992%, 87.640381%)" offset="0.15625"/><stop stop-opacity="1" stop-color="rgb(20.979309%, 53.40271%, 87.844849%)" offset="0.160156"/><stop stop-opacity="1" stop-color="rgb(21.192932%, 53.651428%, 88.049316%)" offset="0.164062"/><stop stop-opacity="1" stop-color="rgb(21.406555%, 53.900146%, 88.253784%)" offset="0.167969"/><stop stop-opacity="1" stop-color="rgb(21.620178%, 54.148865%, 88.458252%)" offset="0.171875"/><stop stop-opacity="1" stop-color="rgb(21.833801%, 54.397583%, 88.661194%)" offset="0.175781"/><stop stop-opacity="1" stop-color="rgb(22.047424%, 54.646301%, 88.865662%)" offset="0.179687"/><stop stop-opacity="1" stop-color="rgb(22.261047%, 54.89502%, 89.070129%)" offset="0.183594"/><stop stop-opacity="1" stop-color="rgb(22.47467%, 55.143738%, 89.274597%)" offset="0.1875"/><stop stop-opacity="1" stop-color="rgb(22.688293%, 55.39093%, 89.479065%)" offset="0.191406"/><stop stop-opacity="1" stop-color="rgb(22.901917%, 55.639648%, 89.683533%)" offset="0.195312"/><stop stop-opacity="1" stop-color="rgb(23.11554%, 55.888367%, 89.886475%)" offset="0.199219"/><stop stop-opacity="1" stop-color="rgb(23.329163%, 56.137085%, 90.090942%)" offset="0.203125"/><stop stop-opacity="1" stop-color="rgb(23.542786%, 56.385803%, 90.29541%)" offset="0.207031"/><stop stop-opacity="1" stop-color="rgb(23.756409%, 56.634521%, 90.499878%)" offset="0.210937"/><stop stop-opacity="1" stop-color="rgb(23.970032%, 56.88324%, 90.70282%)" offset="0.214844"/><stop stop-opacity="1" stop-color="rgb(24.183655%, 57.131958%, 90.907288%)" offset="0.21875"/><stop stop-opacity="1" stop-color="rgb(24.397278%, 57.37915%, 91.111755%)" offset="0.222656"/><stop stop-opacity="1" stop-color="rgb(24.612427%, 57.627869%, 91.316223%)" offset="0.226562"/><stop stop-opacity="1" stop-color="rgb(24.82605%, 57.876587%, 91.520691%)" offset="0.230469"/><stop stop-opacity="1" stop-color="rgb(25.039673%, 58.125305%, 91.725159%)" offset="0.234375"/><stop stop-opacity="1" stop-color="rgb(25.253296%, 58.374023%, 91.928101%)" offset="0.238281"/><stop stop-opacity="1" stop-color="rgb(25.466919%, 58.622742%, 92.132568%)" offset="0.242187"/><stop stop-opacity="1" stop-color="rgb(25.680542%, 58.87146%, 92.337036%)" offset="0.246094"/><stop stop-opacity="1" stop-color="rgb(25.894165%, 59.120178%, 92.541504%)" offset="0.25"/><stop stop-opacity="1" stop-color="rgb(26.107788%, 59.368896%, 92.744446%)" offset="0.253906"/><stop stop-opacity="1" stop-color="rgb(26.321411%, 59.617615%, 92.948914%)" offset="0.257812"/><stop stop-opacity="1" stop-color="rgb(26.535034%, 59.864807%, 93.153381%)" offset="0.261719"/><stop stop-opacity="1" stop-color="rgb(26.748657%, 60.113525%, 93.357849%)" offset="0.265625"/><stop stop-opacity="1" stop-color="rgb(26.96228%, 60.362244%, 93.562317%)" offset="0.269531"/><stop stop-opacity="1" stop-color="rgb(27.175903%, 60.610962%, 93.766785%)" offset="0.273438"/><stop stop-opacity="1" stop-color="rgb(27.389526%, 60.85968%, 93.969727%)" offset="0.277344"/><stop stop-opacity="1" stop-color="rgb(27.603149%, 61.108398%, 94.174194%)" offset="0.28125"/><stop stop-opacity="1" stop-color="rgb(27.816772%, 61.357117%, 94.378662%)" offset="0.285156"/><stop stop-opacity="1" stop-color="rgb(28.030396%, 61.605835%, 94.58313%)" offset="0.289062"/><stop stop-opacity="1" stop-color="rgb(28.244019%, 61.853027%, 94.786072%)" offset="0.292969"/><stop stop-opacity="1" stop-color="rgb(28.457642%, 62.101746%, 94.99054%)" offset="0.296875"/><stop stop-opacity="1" stop-color="rgb(28.671265%, 62.350464%, 95.195007%)" offset="0.300781"/><stop stop-opacity="1" stop-color="rgb(28.884888%, 62.599182%, 95.399475%)" offset="0.304688"/><stop stop-opacity="1" stop-color="rgb(29.098511%, 62.8479%, 95.603943%)" offset="0.308594"/><stop stop-opacity="1" stop-color="rgb(29.312134%, 63.096619%, 95.808411%)" offset="0.3125"/><stop stop-opacity="1" stop-color="rgb(29.525757%, 63.345337%, 96.011353%)" offset="0.316406"/><stop stop-opacity="1" stop-color="rgb(29.73938%, 63.594055%, 96.21582%)" offset="0.320313"/><stop stop-opacity="1" stop-color="rgb(29.953003%, 63.842773%, 96.420288%)" offset="0.324219"/><stop stop-opacity="1" stop-color="rgb(30.166626%, 64.091492%, 96.624756%)" offset="0.328125"/><stop stop-opacity="1" stop-color="rgb(30.380249%, 64.338684%, 96.827698%)" offset="0.332031"/><stop stop-opacity="1" stop-color="rgb(30.595398%, 64.587402%, 97.032166%)" offset="0.335938"/><stop stop-opacity="1" stop-color="rgb(30.809021%, 64.836121%, 97.236633%)" offset="0.339844"/><stop stop-opacity="1" stop-color="rgb(31.022644%, 65.084839%, 97.441101%)" offset="0.34375"/><stop stop-opacity="1" stop-color="rgb(31.236267%, 65.333557%, 97.645569%)" offset="0.347656"/><stop stop-opacity="1" stop-color="rgb(31.44989%, 65.582275%, 97.850037%)" offset="0.351563"/><stop stop-opacity="1" stop-color="rgb(31.663513%, 65.830994%, 98.052979%)" offset="0.355469"/><stop stop-opacity="1" stop-color="rgb(31.877136%, 66.079712%, 98.257446%)" offset="0.359375"/><stop stop-opacity="1" stop-color="rgb(32.090759%, 66.32843%, 98.461914%)" offset="0.363281"/><stop stop-opacity="1" stop-color="rgb(32.304382%, 66.577148%, 98.666382%)" offset="0.367188"/><stop stop-opacity="1" stop-color="rgb(32.518005%, 66.824341%, 98.87085%)" offset="0.371094"/><stop stop-opacity="1" stop-color="rgb(32.731628%, 67.073059%, 99.075317%)" offset="0.375"/><stop stop-opacity="1" stop-color="rgb(32.945251%, 67.321777%, 99.278259%)" offset="0.378906"/><stop stop-opacity="1" stop-color="rgb(33.158875%, 67.570496%, 99.482727%)" offset="0.382812"/><stop stop-opacity="1" stop-color="rgb(33.372498%, 67.819214%, 99.687195%)" offset="0.386719"/><stop stop-opacity="1" stop-color="rgb(33.586121%, 68.067932%, 99.891663%)" offset="0.390625"/><stop stop-opacity="1" stop-color="rgb(33.802795%, 68.200684%, 99.890137%)" offset="0.394531"/><stop stop-opacity="1" stop-color="rgb(34.01947%, 68.333435%, 99.890137%)" offset="0.398437"/><stop stop-opacity="1" stop-color="rgb(34.236145%, 68.423462%, 99.815369%)" offset="0.402344"/><stop stop-opacity="1" stop-color="rgb(34.454346%, 68.515015%, 99.740601%)" offset="0.40625"/><stop stop-opacity="1" stop-color="rgb(34.671021%, 68.605042%, 99.665833%)" offset="0.410156"/><stop stop-opacity="1" stop-color="rgb(34.889221%, 68.696594%, 99.59259%)" offset="0.414062"/><stop stop-opacity="1" stop-color="rgb(35.105896%, 68.786621%, 99.517822%)" offset="0.417969"/><stop stop-opacity="1" stop-color="rgb(35.324097%, 68.876648%, 99.44458%)" offset="0.421875"/><stop stop-opacity="1" stop-color="rgb(35.540771%, 68.966675%, 99.369812%)" offset="0.425781"/><stop stop-opacity="1" stop-color="rgb(35.758972%, 69.058228%, 99.295044%)" offset="0.429687"/><stop stop-opacity="1" stop-color="rgb(35.975647%, 69.148254%, 99.220276%)" offset="0.433594"/><stop stop-opacity="1" stop-color="rgb(36.193848%, 69.239807%, 99.147034%)" offset="0.4375"/><stop stop-opacity="1" stop-color="rgb(36.410522%, 69.329834%, 99.072266%)" offset="0.441406"/><stop stop-opacity="1" stop-color="rgb(36.628723%, 69.421387%, 98.997498%)" offset="0.445312"/><stop stop-opacity="1" stop-color="rgb(36.845398%, 69.511414%, 98.922729%)" offset="0.449219"/><stop stop-opacity="1" stop-color="rgb(37.063599%, 69.602966%, 98.849487%)" offset="0.453125"/><stop stop-opacity="1" stop-color="rgb(37.280273%, 69.692993%, 98.774719%)" offset="0.457031"/><stop stop-opacity="1" stop-color="rgb(37.498474%, 69.784546%, 98.701477%)" offset="0.460938"/><stop stop-opacity="1" stop-color="rgb(37.715149%, 69.874573%, 98.626709%)" offset="0.464844"/><stop stop-opacity="1" stop-color="rgb(37.93335%, 69.966125%, 98.551941%)" offset="0.46875"/><stop stop-opacity="1" stop-color="rgb(38.150024%, 70.056152%, 98.477173%)" offset="0.472656"/><stop stop-opacity="1" stop-color="rgb(38.368225%, 70.147705%, 98.403931%)" offset="0.476562"/><stop stop-opacity="1" stop-color="rgb(38.5849%, 70.237732%, 98.329163%)" offset="0.480469"/><stop stop-opacity="1" stop-color="rgb(38.803101%, 70.329285%, 98.254395%)" offset="0.484375"/><stop stop-opacity="1" stop-color="rgb(39.021301%, 70.419312%, 98.179626%)" offset="0.488281"/><stop stop-opacity="1" stop-color="rgb(39.239502%, 70.510864%, 98.106384%)" offset="0.492188"/><stop stop-opacity="1" stop-color="rgb(39.456177%, 70.600891%, 98.031616%)" offset="0.496094"/><stop stop-opacity="1" stop-color="rgb(39.674377%, 70.692444%, 97.956848%)" offset="0.5"/><stop stop-opacity="1" stop-color="rgb(39.891052%, 70.782471%, 97.88208%)" offset="0.503906"/><stop stop-opacity="1" stop-color="rgb(40.109253%, 70.874023%, 97.808838%)" offset="0.507812"/><stop stop-opacity="1" stop-color="rgb(40.325928%, 70.96405%, 97.73407%)" offset="0.511719"/><stop stop-opacity="1" stop-color="rgb(40.544128%, 71.055603%, 97.660828%)" offset="0.515625"/><stop stop-opacity="1" stop-color="rgb(40.760803%, 71.14563%, 97.58606%)" offset="0.519531"/><stop stop-opacity="1" stop-color="rgb(40.979004%, 71.237183%, 97.511292%)" offset="0.523438"/><stop stop-opacity="1" stop-color="rgb(41.195679%, 71.327209%, 97.436523%)" offset="0.527344"/><stop stop-opacity="1" stop-color="rgb(41.413879%, 71.418762%, 97.363281%)" offset="0.53125"/><stop stop-opacity="1" stop-color="rgb(41.630554%, 71.508789%, 97.288513%)" offset="0.535156"/><stop stop-opacity="1" stop-color="rgb(41.848755%, 71.600342%, 97.213745%)" offset="0.539062"/><stop stop-opacity="1" stop-color="rgb(42.06543%, 71.690369%, 97.138977%)" offset="0.542969"/><stop stop-opacity="1" stop-color="rgb(42.28363%, 71.781921%, 97.065735%)" offset="0.546875"/><stop stop-opacity="1" stop-color="rgb(42.500305%, 71.871948%, 96.990967%)" offset="0.550781"/><stop stop-opacity="1" stop-color="rgb(42.718506%, 71.963501%, 96.917725%)" offset="0.554688"/><stop stop-opacity="1" stop-color="rgb(42.935181%, 72.053528%, 96.842957%)" offset="0.558594"/><stop stop-opacity="1" stop-color="rgb(43.153381%, 72.145081%, 96.768188%)" offset="0.5625"/><stop stop-opacity="1" stop-color="rgb(43.370056%, 72.235107%, 96.69342%)" offset="0.566406"/><stop stop-opacity="1" stop-color="rgb(43.588257%, 72.32666%, 96.620178%)" offset="0.570312"/><stop stop-opacity="1" stop-color="rgb(43.804932%, 72.416687%, 96.54541%)" offset="0.574219"/><stop stop-opacity="1" stop-color="rgb(44.023132%, 72.50824%, 96.470642%)" offset="0.578125"/><stop stop-opacity="1" stop-color="rgb(44.239807%, 72.598267%, 96.395874%)" offset="0.582031"/><stop stop-opacity="1" stop-color="rgb(44.458008%, 72.689819%, 96.322632%)" offset="0.585938"/><stop stop-opacity="1" stop-color="rgb(44.674683%, 72.779846%, 96.247864%)" offset="0.589844"/><stop stop-opacity="1" stop-color="rgb(44.892883%, 72.871399%, 96.173096%)" offset="0.59375"/><stop stop-opacity="1" stop-color="rgb(45.109558%, 72.961426%, 96.098328%)" offset="0.597656"/><stop stop-opacity="1" stop-color="rgb(45.327759%, 73.052979%, 96.025085%)" offset="0.601563"/><stop stop-opacity="1" stop-color="rgb(45.544434%, 73.143005%, 95.950317%)" offset="0.605469"/><stop stop-opacity="1" stop-color="rgb(45.762634%, 73.234558%, 95.877075%)" offset="0.609375"/><stop stop-opacity="1" stop-color="rgb(45.979309%, 73.324585%, 95.802307%)" offset="0.613281"/><stop stop-opacity="1" stop-color="rgb(46.19751%, 73.416138%, 95.727539%)" offset="0.617188"/><stop stop-opacity="1" stop-color="rgb(46.41571%, 73.506165%, 95.652771%)" offset="0.621094"/><stop stop-opacity="1" stop-color="rgb(46.633911%, 73.597717%, 95.579529%)" offset="0.625"/><stop stop-opacity="1" stop-color="rgb(46.850586%, 73.687744%, 95.504761%)" offset="0.628906"/><stop stop-opacity="1" stop-color="rgb(47.068787%, 73.779297%, 95.429993%)" offset="0.632813"/><stop stop-opacity="1" stop-color="rgb(47.285461%, 73.869324%, 95.355225%)" offset="0.636719"/><stop stop-opacity="1" stop-color="rgb(47.503662%, 73.960876%, 95.281982%)" offset="0.640625"/><stop stop-opacity="1" stop-color="rgb(47.720337%, 74.050903%, 95.207214%)" offset="0.644531"/><stop stop-opacity="1" stop-color="rgb(47.938538%, 74.142456%, 95.133972%)" offset="0.648438"/><stop stop-opacity="1" stop-color="rgb(48.155212%, 74.232483%, 95.059204%)" offset="0.652344"/><stop stop-opacity="1" stop-color="rgb(48.373413%, 74.324036%, 94.984436%)" offset="0.65625"/><stop stop-opacity="1" stop-color="rgb(48.590088%, 74.414062%, 94.909668%)" offset="0.660156"/><stop stop-opacity="1" stop-color="rgb(48.808289%, 74.505615%, 94.836426%)" offset="0.664063"/><stop stop-opacity="1" stop-color="rgb(49.024963%, 74.595642%, 94.761658%)" offset="0.667969"/><stop stop-opacity="1" stop-color="rgb(49.243164%, 74.687195%, 94.68689%)" offset="0.671875"/><stop stop-opacity="1" stop-color="rgb(49.459839%, 74.777222%, 94.612122%)" offset="0.675781"/><stop stop-opacity="1" stop-color="rgb(49.67804%, 74.868774%, 94.538879%)" offset="0.679688"/><stop stop-opacity="1" stop-color="rgb(49.894714%, 74.958801%, 94.464111%)" offset="0.683594"/><stop stop-opacity="1" stop-color="rgb(50.112915%, 75.050354%, 94.389343%)" offset="0.6875"/><stop stop-opacity="1" stop-color="rgb(50.32959%, 75.140381%, 94.314575%)" offset="0.691406"/><stop stop-opacity="1" stop-color="rgb(50.547791%, 75.231934%, 94.241333%)" offset="0.695313"/><stop stop-opacity="1" stop-color="rgb(50.764465%, 75.32196%, 94.166565%)" offset="0.699219"/><stop stop-opacity="1" stop-color="rgb(50.982666%, 75.413513%, 94.093323%)" offset="0.703125"/><stop stop-opacity="1" stop-color="rgb(51.199341%, 75.50354%, 94.018555%)" offset="0.707031"/><stop stop-opacity="1" stop-color="rgb(51.417542%, 75.595093%, 93.943787%)" offset="0.710938"/><stop stop-opacity="1" stop-color="rgb(51.634216%, 75.68512%, 93.869019%)" offset="0.714844"/><stop stop-opacity="1" stop-color="rgb(51.852417%, 75.776672%, 93.795776%)" offset="0.71875"/><stop stop-opacity="1" stop-color="rgb(52.069092%, 75.866699%, 93.721008%)" offset="0.722656"/><stop stop-opacity="1" stop-color="rgb(52.287292%, 75.956726%, 93.64624%)" offset="0.726563"/><stop stop-opacity="1" stop-color="rgb(52.503967%, 76.046753%, 93.571472%)" offset="0.730469"/><stop stop-opacity="1" stop-color="rgb(52.722168%, 76.138306%, 93.49823%)" offset="0.734375"/><stop stop-opacity="1" stop-color="rgb(52.938843%, 76.228333%, 93.423462%)" offset="0.738281"/><stop stop-opacity="1" stop-color="rgb(53.157043%, 76.319885%, 93.35022%)" offset="0.742188"/><stop stop-opacity="1" stop-color="rgb(53.373718%, 76.409912%, 93.275452%)" offset="0.746094"/><stop stop-opacity="1" stop-color="rgb(53.591919%, 76.501465%, 93.200684%)" offset="0.75"/><stop stop-opacity="1" stop-color="rgb(53.81012%, 76.591492%, 93.125916%)" offset="0.753906"/><stop stop-opacity="1" stop-color="rgb(54.02832%, 76.683044%, 93.052673%)" offset="0.757812"/><stop stop-opacity="1" stop-color="rgb(54.244995%, 76.773071%, 92.977905%)" offset="0.761719"/><stop stop-opacity="1" stop-color="rgb(54.463196%, 76.864624%, 92.903137%)" offset="0.765625"/><stop stop-opacity="1" stop-color="rgb(54.679871%, 76.954651%, 92.828369%)" offset="0.769531"/><stop stop-opacity="1" stop-color="rgb(54.898071%, 77.046204%, 92.755127%)" offset="0.773437"/><stop stop-opacity="1" stop-color="rgb(55.114746%, 77.13623%, 92.680359%)" offset="0.777344"/><stop stop-opacity="1" stop-color="rgb(55.332947%, 77.227783%, 92.605591%)" offset="0.78125"/><stop stop-opacity="1" stop-color="rgb(55.549622%, 77.31781%, 92.530823%)" offset="0.785156"/><stop stop-opacity="1" stop-color="rgb(55.767822%, 77.409363%, 92.457581%)" offset="0.789062"/><stop stop-opacity="1" stop-color="rgb(55.984497%, 77.49939%, 92.382812%)" offset="0.792969"/><stop stop-opacity="1" stop-color="rgb(56.202698%, 77.590942%, 92.30957%)" offset="0.796875"/><stop stop-opacity="1" stop-color="rgb(56.419373%, 77.680969%, 92.234802%)" offset="0.800781"/><stop stop-opacity="1" stop-color="rgb(56.637573%, 77.772522%, 92.160034%)" offset="0.804687"/><stop stop-opacity="1" stop-color="rgb(56.854248%, 77.862549%, 92.085266%)" offset="0.808594"/><stop stop-opacity="1" stop-color="rgb(57.072449%, 77.954102%, 92.012024%)" offset="0.8125"/><stop stop-opacity="1" stop-color="rgb(57.289124%, 78.044128%, 91.937256%)" offset="0.816406"/><stop stop-opacity="1" stop-color="rgb(57.507324%, 78.135681%, 91.862488%)" offset="0.820312"/><stop stop-opacity="1" stop-color="rgb(57.723999%, 78.225708%, 91.78772%)" offset="0.824219"/><stop stop-opacity="1" stop-color="rgb(57.9422%, 78.317261%, 91.714478%)" offset="0.828125"/><stop stop-opacity="1" stop-color="rgb(58.158875%, 78.407288%, 91.639709%)" offset="0.832031"/><stop stop-opacity="1" stop-color="rgb(58.377075%, 78.49884%, 91.566467%)" offset="0.835937"/><stop stop-opacity="1" stop-color="rgb(58.59375%, 78.588867%, 91.491699%)" offset="0.839844"/><stop stop-opacity="1" stop-color="rgb(58.811951%, 78.68042%, 91.416931%)" offset="0.84375"/><stop stop-opacity="1" stop-color="rgb(59.028625%, 78.770447%, 91.342163%)" offset="0.847656"/><stop stop-opacity="1" stop-color="rgb(59.246826%, 78.862%, 91.268921%)" offset="0.851562"/><stop stop-opacity="1" stop-color="rgb(59.463501%, 78.952026%, 91.194153%)" offset="0.855469"/><stop stop-opacity="1" stop-color="rgb(59.681702%, 79.043579%, 91.119385%)" offset="0.859375"/><stop stop-opacity="1" stop-color="rgb(59.898376%, 79.133606%, 91.044617%)" offset="0.863281"/><stop stop-opacity="1" stop-color="rgb(60.116577%, 79.225159%, 90.971375%)" offset="0.867187"/><stop stop-opacity="1" stop-color="rgb(60.333252%, 79.315186%, 90.896606%)" offset="0.871094"/><stop stop-opacity="1" stop-color="rgb(60.551453%, 79.406738%, 90.823364%)" offset="0.875"/><stop stop-opacity="1" stop-color="rgb(60.769653%, 79.496765%, 90.748596%)" offset="0.878906"/><stop stop-opacity="1" stop-color="rgb(60.987854%, 79.588318%, 90.673828%)" offset="0.882812"/><stop stop-opacity="1" stop-color="rgb(61.204529%, 79.678345%, 90.59906%)" offset="0.886719"/><stop stop-opacity="1" stop-color="rgb(61.422729%, 79.769897%, 90.525818%)" offset="0.890625"/><stop stop-opacity="1" stop-color="rgb(61.639404%, 79.859924%, 90.45105%)" offset="0.894531"/><stop stop-opacity="1" stop-color="rgb(61.857605%, 79.951477%, 90.376282%)" offset="0.898437"/><stop stop-opacity="1" stop-color="rgb(62.07428%, 80.041504%, 90.301514%)" offset="0.902344"/><stop stop-opacity="1" stop-color="rgb(62.29248%, 80.133057%, 90.228271%)" offset="0.90625"/><stop stop-opacity="1" stop-color="rgb(62.509155%, 80.223083%, 90.153503%)" offset="0.910156"/><stop stop-opacity="1" stop-color="rgb(62.727356%, 80.314636%, 90.078735%)" offset="0.914062"/><stop stop-opacity="1" stop-color="rgb(62.944031%, 80.404663%, 90.003967%)" offset="0.917969"/><stop stop-opacity="1" stop-color="rgb(63.162231%, 80.496216%, 89.930725%)" offset="0.921875"/><stop stop-opacity="1" stop-color="rgb(63.378906%, 80.586243%, 89.855957%)" offset="0.925781"/><stop stop-opacity="1" stop-color="rgb(63.597107%, 80.677795%, 89.782715%)" offset="0.929688"/><stop stop-opacity="1" stop-color="rgb(63.813782%, 80.767822%, 89.707947%)" offset="0.933594"/><stop stop-opacity="1" stop-color="rgb(64.031982%, 80.859375%, 89.633179%)" offset="0.9375"/><stop stop-opacity="1" stop-color="rgb(64.248657%, 80.949402%, 89.558411%)" offset="0.941406"/><stop stop-opacity="1" stop-color="rgb(64.466858%, 81.040955%, 89.485168%)" offset="0.945312"/><stop stop-opacity="1" stop-color="rgb(64.683533%, 81.130981%, 89.4104%)" offset="0.949219"/><stop stop-opacity="1" stop-color="rgb(64.901733%, 81.222534%, 89.335632%)" offset="0.953125"/><stop stop-opacity="1" stop-color="rgb(65.118408%, 81.312561%, 89.260864%)" offset="0.957031"/><stop stop-opacity="1" stop-color="rgb(65.336609%, 81.404114%, 89.187622%)" offset="0.960938"/><stop stop-opacity="1" stop-color="rgb(65.553284%, 81.494141%, 89.112854%)" offset="0.964844"/><stop stop-opacity="1" stop-color="rgb(65.771484%, 81.585693%, 89.039612%)" offset="0.96875"/><stop stop-opacity="1" stop-color="rgb(65.988159%, 81.67572%, 88.964844%)" offset="0.972656"/><stop stop-opacity="1" stop-color="rgb(66.20636%, 81.767273%, 88.890076%)" offset="0.976562"/><stop stop-opacity="1" stop-color="rgb(66.423035%, 81.8573%, 88.815308%)" offset="0.980469"/><stop stop-opacity="1" stop-color="rgb(66.641235%, 81.948853%, 88.742065%)" offset="0.984375"/><stop stop-opacity="1" stop-color="rgb(66.85791%, 82.038879%, 88.667297%)" offset="0.988281"/><stop stop-opacity="1" stop-color="rgb(67.076111%, 82.130432%, 88.592529%)" offset="0.992188"/><stop stop-opacity="1" stop-color="rgb(67.292786%, 82.220459%, 88.517761%)" offset="0.996094"/><stop stop-opacity="1" stop-color="rgb(67.510986%, 82.312012%, 88.444519%)" offset="1"/></linearGradient></defs><rect x="-37.5" width="450" fill="#ffffff" y="-37.499999" height="449.999989" fill-opacity="1"/><rect x="-37.5" width="450" fill="#edfaff" y="-37.499999" height="449.999989" fill-opacity="1"/><g fill="#004aad" fill-opacity="1"><g transform="translate(37.500002, 227.417752)"><g><path d="M 8.484375 0 L 8.484375 -97.28125 L 31.828125 -97.28125 L 31.828125 -59.0625 L 69.765625 -59.0625 L 69.765625 -97.28125 L 93.109375 -97.28125 L 93.109375 0 L 69.765625 0 L 69.765625 -39.609375 L 31.828125 -39.609375 L 31.828125 0 Z M 8.484375 0 "/></g></g></g><g fill="#004aad" fill-opacity="1"><g transform="translate(139.078855, 227.417752)"><g><path d="M 37.375 0 C 31.351562 0 26.070312 -1.34375 21.53125 -4.03125 C 17 -6.71875 13.476562 -10.285156 10.96875 -14.734375 C 8.46875 -19.179688 7.21875 -24.09375 7.21875 -29.46875 L 7.21875 -97.28125 L 30.578125 -97.28125 L 30.578125 -27.796875 C 30.578125 -25.566406 31.363281 -23.617188 32.9375 -21.953125 C 34.507812 -20.285156 36.453125 -19.453125 38.765625 -19.453125 L 64.484375 -19.453125 L 64.484375 0 Z M 37.375 0 "/></g></g></g><g clip-path="url(#a71bbe4871)"><g clip-path="url(#03b3d4fac0)"><g clip-path="url(#30dc351c4d)"><g clip-path="url(#e3eb10b08c)"><path fill="url(#339861dc9f)" d="M 166.105469 175.542969 L 271.054688 280.492188 L 376.003906 175.542969 L 271.054688 70.59375 Z M 166.105469 175.542969 " fill-rule="nonzero"/></g></g></g></g><g clip-path="url(#62c28ba5a9)"><g clip-path="url(#a4d9016cb0)"><g clip-path="url(#5c7af47e42)"><g clip-path="url(#ede35dff40)"><path fill="url(#77f2e0d17d)" d="M 174.566406 68.640625 L 270.5 164.574219 L 366.433594 68.640625 L 270.5 -27.296875 Z M 174.566406 68.640625 " fill-rule="nonzero"/></g></g></g></g><g fill="#004aad" fill-opacity="1"><g transform="translate(128.917964, 253.320497)"><g><path d="M 2.3125 -7.9375 C 2.257812 -8.070312 2.171875 -8.1875 2.046875 -8.28125 C 1.921875 -8.363281 1.78125 -8.40625 1.625 -8.40625 C 1.5 -8.40625 1.382812 -8.378906 1.28125 -8.328125 C 1.175781 -8.265625 1.09375 -8.1875 1.03125 -8.09375 C 0.957031 -8 0.914062 -7.894531 0.90625 -7.78125 C 0.882812 -7.65625 0.898438 -7.535156 0.953125 -7.421875 L 3.59375 -0.625 C 3.664062 -0.4375 3.78125 -0.289062 3.9375 -0.1875 C 4.09375 -0.0820312 4.269531 -0.03125 4.46875 -0.03125 C 4.65625 -0.03125 4.828125 -0.0820312 4.984375 -0.1875 C 5.148438 -0.289062 5.269531 -0.4375 5.34375 -0.625 L 7.984375 -7.421875 C 8.023438 -7.535156 8.039062 -7.65625 8.03125 -7.78125 C 8.007812 -7.894531 7.96875 -8 7.90625 -8.09375 C 7.832031 -8.1875 7.742188 -8.265625 7.640625 -8.328125 C 7.535156 -8.378906 7.421875 -8.40625 7.296875 -8.40625 C 7.140625 -8.40625 7.003906 -8.363281 6.890625 -8.28125 C 6.765625 -8.1875 6.671875 -8.070312 6.609375 -7.9375 L 4.609375 -2.765625 C 4.585938 -2.703125 4.539062 -2.671875 4.46875 -2.671875 C 4.40625 -2.671875 4.359375 -2.703125 4.328125 -2.765625 Z M 2.3125 -7.9375 "/></g></g></g><g fill="#004aad" fill-opacity="1"><g transform="translate(137.857985, 253.320497)"><g><path d="M 4.328125 -5.625 C 4.359375 -5.6875 4.40625 -5.71875 4.46875 -5.71875 C 4.539062 -5.71875 4.585938 -5.6875 4.609375 -5.625 L 5.15625 -4.203125 C 5.175781 -4.148438 5.171875 -4.101562 5.140625 -4.0625 C 5.109375 -4.019531 5.066406 -4 5.015625 -4 L 3.90625 -4 C 3.84375 -4 3.800781 -4.019531 3.78125 -4.0625 C 3.75 -4.101562 3.738281 -4.148438 3.75 -4.203125 Z M 0.953125 -1.015625 C 0.898438 -0.890625 0.882812 -0.765625 0.90625 -0.640625 C 0.914062 -0.523438 0.957031 -0.425781 1.03125 -0.34375 C 1.09375 -0.238281 1.175781 -0.160156 1.28125 -0.109375 C 1.382812 -0.046875 1.5 -0.015625 1.625 -0.015625 C 1.78125 -0.015625 1.921875 -0.0546875 2.046875 -0.140625 C 2.171875 -0.234375 2.257812 -0.347656 2.3125 -0.484375 L 3 -2.25 C 3.039062 -2.34375 3.101562 -2.414062 3.1875 -2.46875 C 3.25 -2.519531 3.332031 -2.546875 3.4375 -2.546875 L 5.515625 -2.546875 C 5.609375 -2.546875 5.691406 -2.519531 5.765625 -2.46875 C 5.835938 -2.414062 5.894531 -2.34375 5.9375 -2.25 L 6.625 -0.484375 C 6.675781 -0.347656 6.769531 -0.234375 6.90625 -0.140625 C 7.019531 -0.0546875 7.15625 -0.015625 7.3125 -0.015625 C 7.4375 -0.015625 7.550781 -0.046875 7.65625 -0.109375 C 7.757812 -0.160156 7.847656 -0.238281 7.921875 -0.34375 C 7.984375 -0.425781 8.023438 -0.523438 8.046875 -0.640625 C 8.054688 -0.765625 8.035156 -0.890625 7.984375 -1.015625 L 5.359375 -7.796875 C 5.285156 -7.984375 5.164062 -8.132812 5 -8.25 C 4.84375 -8.351562 4.664062 -8.40625 4.46875 -8.40625 C 4.28125 -8.40625 4.109375 -8.351562 3.953125 -8.25 C 3.785156 -8.132812 3.664062 -7.984375 3.59375 -7.796875 Z M 0.953125 -1.015625 "/></g></g></g><g fill="#004aad" fill-opacity="1"><g transform="translate(146.798006, 253.320497)"><g><path d="M 2.359375 -6.46875 C 2.359375 -6.59375 2.398438 -6.703125 2.484375 -6.796875 C 2.566406 -6.878906 2.675781 -6.921875 2.8125 -6.921875 L 3.625 -6.921875 C 3.675781 -6.921875 3.757812 -6.914062 3.875 -6.90625 C 3.988281 -6.882812 4.109375 -6.84375 4.234375 -6.78125 C 4.359375 -6.71875 4.46875 -6.617188 4.5625 -6.484375 C 4.65625 -6.347656 4.703125 -6.160156 4.703125 -5.921875 C 4.703125 -5.679688 4.65625 -5.492188 4.5625 -5.359375 C 4.46875 -5.210938 4.359375 -5.109375 4.234375 -5.046875 C 4.109375 -4.984375 3.988281 -4.945312 3.875 -4.9375 C 3.757812 -4.914062 3.675781 -4.90625 3.625 -4.90625 L 2.8125 -4.90625 C 2.675781 -4.90625 2.566406 -4.953125 2.484375 -5.046875 C 2.398438 -5.128906 2.359375 -5.234375 2.359375 -5.359375 Z M 5.40625 -4.0625 C 5.9375 -4.539062 6.203125 -5.160156 6.203125 -5.921875 C 6.203125 -6.285156 6.140625 -6.617188 6.015625 -6.921875 C 5.878906 -7.222656 5.695312 -7.488281 5.46875 -7.71875 C 5.238281 -7.9375 4.96875 -8.109375 4.65625 -8.234375 C 4.34375 -8.347656 4.003906 -8.40625 3.640625 -8.40625 L 1.640625 -8.40625 C 1.429688 -8.40625 1.253906 -8.335938 1.109375 -8.203125 C 0.972656 -8.054688 0.90625 -7.878906 0.90625 -7.671875 L 0.90625 -0.75 C 0.90625 -0.539062 0.972656 -0.363281 1.109375 -0.21875 C 1.242188 -0.0703125 1.414062 0 1.625 0 C 1.832031 0 2.007812 -0.0703125 2.15625 -0.21875 C 2.289062 -0.351562 2.359375 -0.523438 2.359375 -0.734375 L 2.359375 -3.03125 C 2.359375 -3.144531 2.394531 -3.238281 2.46875 -3.3125 C 2.539062 -3.382812 2.632812 -3.421875 2.75 -3.421875 C 2.925781 -3.421875 3.066406 -3.34375 3.171875 -3.1875 L 4.890625 -0.34375 C 5.035156 -0.113281 5.242188 0 5.515625 0 C 5.660156 0 5.789062 -0.0351562 5.90625 -0.109375 C 6.019531 -0.179688 6.109375 -0.273438 6.171875 -0.390625 C 6.222656 -0.492188 6.25 -0.613281 6.25 -0.75 C 6.25 -0.875 6.210938 -0.992188 6.140625 -1.109375 L 4.71875 -3.4375 C 4.695312 -3.476562 4.691406 -3.523438 4.703125 -3.578125 C 4.722656 -3.617188 4.75 -3.648438 4.78125 -3.671875 C 5 -3.765625 5.203125 -3.894531 5.390625 -4.0625 Z M 5.40625 -4.0625 "/></g></g></g><g fill="#004aad" fill-opacity="1"><g transform="translate(153.986017, 253.320497)"><g><path d="M 1.625 0 C 1.832031 0 2.007812 -0.0703125 2.15625 -0.21875 C 2.289062 -0.351562 2.359375 -0.523438 2.359375 -0.734375 L 2.359375 -7.65625 C 2.359375 -7.863281 2.285156 -8.039062 2.140625 -8.1875 C 2.003906 -8.320312 1.832031 -8.390625 1.625 -8.390625 C 1.414062 -8.390625 1.238281 -8.316406 1.09375 -8.171875 C 0.945312 -8.023438 0.875 -7.847656 0.875 -7.640625 L 0.875 -0.71875 C 0.875 -0.507812 0.953125 -0.335938 1.109375 -0.203125 C 1.242188 -0.0664062 1.414062 0 1.625 0 Z M 1.625 0 "/></g></g></g><g fill="#004aad" fill-opacity="1"><g transform="translate(157.262025, 253.320497)"><g><path d="M 4.328125 -5.625 C 4.359375 -5.6875 4.40625 -5.71875 4.46875 -5.71875 C 4.539062 -5.71875 4.585938 -5.6875 4.609375 -5.625 L 5.15625 -4.203125 C 5.175781 -4.148438 5.171875 -4.101562 5.140625 -4.0625 C 5.109375 -4.019531 5.066406 -4 5.015625 -4 L 3.90625 -4 C 3.84375 -4 3.800781 -4.019531 3.78125 -4.0625 C 3.75 -4.101562 3.738281 -4.148438 3.75 -4.203125 Z M 0.953125 -1.015625 C 0.898438 -0.890625 0.882812 -0.765625 0.90625 -0.640625 C 0.914062 -0.523438 0.957031 -0.425781 1.03125 -0.34375 C 1.09375 -0.238281 1.175781 -0.160156 1.28125 -0.109375 C 1.382812 -0.046875 1.5 -0.015625 1.625 -0.015625 C 1.78125 -0.015625 1.921875 -0.0546875 2.046875 -0.140625 C 2.171875 -0.234375 2.257812 -0.347656 2.3125 -0.484375 L 3 -2.25 C 3.039062 -2.34375 3.101562 -2.414062 3.1875 -2.46875 C 3.25 -2.519531 3.332031 -2.546875 3.4375 -2.546875 L 5.515625 -2.546875 C 5.609375 -2.546875 5.691406 -2.519531 5.765625 -2.46875 C 5.835938 -2.414062 5.894531 -2.34375 5.9375 -2.25 L 6.625 -0.484375 C 6.675781 -0.347656 6.769531 -0.234375 6.90625 -0.140625 C 7.019531 -0.0546875 7.15625 -0.015625 7.3125 -0.015625 C 7.4375 -0.015625 7.550781 -0.046875 7.65625 -0.109375 C 7.757812 -0.160156 7.847656 -0.238281 7.921875 -0.34375 C 7.984375 -0.425781 8.023438 -0.523438 8.046875 -0.640625 C 8.054688 -0.765625 8.035156 -0.890625 7.984375 -1.015625 L 5.359375 -7.796875 C 5.285156 -7.984375 5.164062 -8.132812 5 -8.25 C 4.84375 -8.351562 4.664062 -8.40625 4.46875 -8.40625 C 4.28125 -8.40625 4.109375 -8.351562 3.953125 -8.25 C 3.785156 -8.132812 3.664062 -7.984375 3.59375 -7.796875 Z M 0.953125 -1.015625 "/></g></g></g><g fill="#004aad" fill-opacity="1"><g transform="translate(166.202046, 253.320497)"><g><path d="M 2.203125 -8.140625 C 2.046875 -8.316406 1.851562 -8.40625 1.625 -8.40625 C 1.414062 -8.40625 1.242188 -8.332031 1.109375 -8.1875 C 0.960938 -8.039062 0.890625 -7.863281 0.890625 -7.65625 L 0.890625 -0.734375 C 0.890625 -0.523438 0.960938 -0.347656 1.109375 -0.203125 C 1.242188 -0.0546875 1.414062 0.015625 1.625 0.015625 C 1.832031 0.015625 2.003906 -0.0546875 2.140625 -0.203125 C 2.285156 -0.335938 2.359375 -0.507812 2.359375 -0.71875 L 2.359375 -5.21875 C 2.359375 -5.320312 2.410156 -5.375 2.515625 -5.375 C 2.546875 -5.375 2.582031 -5.351562 2.625 -5.3125 L 6.90625 -0.25 C 7.050781 -0.0703125 7.238281 0.015625 7.46875 0.015625 C 7.675781 0.015625 7.847656 -0.0546875 7.984375 -0.203125 C 8.128906 -0.335938 8.203125 -0.507812 8.203125 -0.71875 L 8.203125 -7.640625 C 8.203125 -7.847656 8.128906 -8.023438 7.984375 -8.171875 C 7.835938 -8.304688 7.660156 -8.375 7.453125 -8.375 C 7.242188 -8.375 7.066406 -8.300781 6.921875 -8.15625 C 6.773438 -8.007812 6.703125 -7.832031 6.703125 -7.625 L 6.703125 -3.125 C 6.703125 -3.039062 6.664062 -3 6.59375 -3 C 6.550781 -3 6.507812 -3.023438 6.46875 -3.078125 Z M 2.203125 -8.140625 "/></g></g></g><g fill="#004aad" fill-opacity="1"><g transform="translate(175.32206, 253.320497)"><g><path d="M 3.0625 -6.921875 C 3.1875 -6.921875 3.296875 -6.878906 3.390625 -6.796875 C 3.472656 -6.703125 3.515625 -6.59375 3.515625 -6.46875 L 3.515625 -0.734375 C 3.515625 -0.523438 3.585938 -0.347656 3.734375 -0.203125 C 3.867188 -0.0546875 4.039062 0.015625 4.25 0.015625 C 4.457031 0.015625 4.632812 -0.0546875 4.78125 -0.203125 C 4.914062 -0.335938 4.984375 -0.507812 4.984375 -0.71875 L 4.984375 -6.453125 C 4.984375 -6.578125 5.023438 -6.6875 5.109375 -6.78125 C 5.203125 -6.863281 5.3125 -6.90625 5.4375 -6.90625 L 6.859375 -6.90625 C 7.066406 -6.90625 7.242188 -6.976562 7.390625 -7.125 C 7.523438 -7.257812 7.59375 -7.429688 7.59375 -7.640625 C 7.59375 -7.847656 7.519531 -8.023438 7.375 -8.171875 C 7.226562 -8.304688 7.054688 -8.375 6.859375 -8.375 L 1.625 -8.375 C 1.414062 -8.375 1.238281 -8.300781 1.09375 -8.15625 C 0.945312 -8.007812 0.875 -7.832031 0.875 -7.625 C 0.875 -7.414062 0.953125 -7.25 1.109375 -7.125 C 1.242188 -6.988281 1.414062 -6.921875 1.625 -6.921875 Z M 3.0625 -6.921875 "/></g></g></g><g fill="#004aad" fill-opacity="1"><g transform="translate(183.842071, 253.320497)"><g/></g></g><g fill="#004aad" fill-opacity="1"><g transform="translate(187.442073, 253.320497)"><g><path d="M 2.359375 -3.34375 C 2.359375 -3.476562 2.40625 -3.585938 2.5 -3.671875 C 2.582031 -3.753906 2.6875 -3.796875 2.8125 -3.796875 L 3.71875 -3.796875 C 3.820312 -3.796875 3.953125 -3.785156 4.109375 -3.765625 C 4.265625 -3.742188 4.414062 -3.695312 4.5625 -3.625 C 4.707031 -3.539062 4.832031 -3.425781 4.9375 -3.28125 C 5.039062 -3.125 5.09375 -2.914062 5.09375 -2.65625 C 5.09375 -2.382812 5.039062 -2.175781 4.9375 -2.03125 C 4.832031 -1.875 4.707031 -1.757812 4.5625 -1.6875 C 4.414062 -1.613281 4.265625 -1.5625 4.109375 -1.53125 C 3.953125 -1.507812 3.820312 -1.5 3.71875 -1.5 L 2.8125 -1.5 C 2.6875 -1.5 2.582031 -1.539062 2.5 -1.625 C 2.40625 -1.71875 2.359375 -1.828125 2.359375 -1.953125 Z M 2.8125 -5.25 C 2.6875 -5.25 2.582031 -5.289062 2.5 -5.375 C 2.40625 -5.46875 2.359375 -5.578125 2.359375 -5.703125 L 2.359375 -6.46875 C 2.359375 -6.59375 2.40625 -6.703125 2.5 -6.796875 C 2.582031 -6.878906 2.6875 -6.921875 2.8125 -6.921875 L 3.4375 -6.921875 C 3.46875 -6.921875 3.535156 -6.914062 3.640625 -6.90625 C 3.734375 -6.894531 3.832031 -6.863281 3.9375 -6.8125 C 4.03125 -6.757812 4.117188 -6.675781 4.203125 -6.5625 C 4.273438 -6.445312 4.3125 -6.289062 4.3125 -6.09375 C 4.3125 -5.894531 4.273438 -5.738281 4.203125 -5.625 C 4.117188 -5.507812 4.03125 -5.425781 3.9375 -5.375 C 3.832031 -5.320312 3.734375 -5.285156 3.640625 -5.265625 C 3.535156 -5.253906 3.46875 -5.25 3.4375 -5.25 Z M 5.546875 -4.703125 C 5.472656 -4.753906 5.457031 -4.820312 5.5 -4.90625 C 5.707031 -5.257812 5.8125 -5.65625 5.8125 -6.09375 C 5.8125 -6.425781 5.75 -6.738281 5.625 -7.03125 C 5.507812 -7.3125 5.347656 -7.554688 5.140625 -7.765625 C 4.921875 -7.960938 4.664062 -8.117188 4.375 -8.234375 C 4.09375 -8.347656 3.78125 -8.40625 3.4375 -8.40625 L 1.65625 -8.40625 C 1.445312 -8.40625 1.269531 -8.332031 1.125 -8.1875 C 0.976562 -8.03125 0.90625 -7.847656 0.90625 -7.640625 L 0.90625 -0.75 C 0.90625 -0.539062 0.976562 -0.363281 1.125 -0.21875 C 1.269531 -0.0625 1.445312 0.015625 1.65625 0.015625 L 3.71875 0.015625 C 4.113281 0.015625 4.488281 -0.046875 4.84375 -0.171875 C 5.1875 -0.285156 5.484375 -0.453125 5.734375 -0.671875 C 5.992188 -0.898438 6.195312 -1.175781 6.34375 -1.5 C 6.488281 -1.820312 6.5625 -2.191406 6.5625 -2.609375 C 6.5625 -3.054688 6.476562 -3.460938 6.3125 -3.828125 C 6.132812 -4.179688 5.878906 -4.472656 5.546875 -4.703125 Z M 5.546875 -4.703125 "/></g></g></g><g fill="#004aad" fill-opacity="1"><g transform="translate(194.918086, 253.320497)"><g><path d="M 2.359375 -6.46875 C 2.359375 -6.59375 2.398438 -6.703125 2.484375 -6.796875 C 2.566406 -6.878906 2.675781 -6.921875 2.8125 -6.921875 L 3.625 -6.921875 C 3.675781 -6.921875 3.757812 -6.914062 3.875 -6.90625 C 3.988281 -6.882812 4.109375 -6.84375 4.234375 -6.78125 C 4.359375 -6.71875 4.46875 -6.617188 4.5625 -6.484375 C 4.65625 -6.347656 4.703125 -6.160156 4.703125 -5.921875 C 4.703125 -5.679688 4.65625 -5.492188 4.5625 -5.359375 C 4.46875 -5.210938 4.359375 -5.109375 4.234375 -5.046875 C 4.109375 -4.984375 3.988281 -4.945312 3.875 -4.9375 C 3.757812 -4.914062 3.675781 -4.90625 3.625 -4.90625 L 2.8125 -4.90625 C 2.675781 -4.90625 2.566406 -4.953125 2.484375 -5.046875 C 2.398438 -5.128906 2.359375 -5.234375 2.359375 -5.359375 Z M 5.40625 -4.0625 C 5.9375 -4.539062 6.203125 -5.160156 6.203125 -5.921875 C 6.203125 -6.285156 6.140625 -6.617188 6.015625 -6.921875 C 5.878906 -7.222656 5.695312 -7.488281 5.46875 -7.71875 C 5.238281 -7.9375 4.96875 -8.109375 4.65625 -8.234375 C 4.34375 -8.347656 4.003906 -8.40625 3.640625 -8.40625 L 1.640625 -8.40625 C 1.429688 -8.40625 1.253906 -8.335938 1.109375 -8.203125 C 0.972656 -8.054688 0.90625 -7.878906 0.90625 -7.671875 L 0.90625 -0.75 C 0.90625 -0.539062 0.972656 -0.363281 1.109375 -0.21875 C 1.242188 -0.0703125 1.414062 0 1.625 0 C 1.832031 0 2.007812 -0.0703125 2.15625 -0.21875 C 2.289062 -0.351562 2.359375 -0.523438 2.359375 -0.734375 L 2.359375 -3.03125 C 2.359375 -3.144531 2.394531 -3.238281 2.46875 -3.3125 C 2.539062 -3.382812 2.632812 -3.421875 2.75 -3.421875 C 2.925781 -3.421875 3.066406 -3.34375 3.171875 -3.1875 L 4.890625 -0.34375 C 5.035156 -0.113281 5.242188 0 5.515625 0 C 5.660156 0 5.789062 -0.0351562 5.90625 -0.109375 C 6.019531 -0.179688 6.109375 -0.273438 6.171875 -0.390625 C 6.222656 -0.492188 6.25 -0.613281 6.25 -0.75 C 6.25 -0.875 6.210938 -0.992188 6.140625 -1.109375 L 4.71875 -3.4375 C 4.695312 -3.476562 4.691406 -3.523438 4.703125 -3.578125 C 4.722656 -3.617188 4.75 -3.648438 4.78125 -3.671875 C 5 -3.765625 5.203125 -3.894531 5.390625 -4.0625 Z M 5.40625 -4.0625 "/></g></g></g><g fill="#004aad" fill-opacity="1"><g transform="translate(202.106096, 253.320497)"><g><path d="M 5.09375 -1.46875 C 4.78125 -1.46875 4.46875 -1.519531 4.15625 -1.625 C 3.820312 -1.71875 3.523438 -1.875 3.265625 -2.09375 C 3.003906 -2.300781 2.789062 -2.578125 2.625 -2.921875 C 2.457031 -3.265625 2.375 -3.691406 2.375 -4.203125 C 2.375 -4.703125 2.457031 -5.128906 2.625 -5.484375 C 2.789062 -5.828125 3.003906 -6.109375 3.265625 -6.328125 C 3.523438 -6.535156 3.820312 -6.6875 4.15625 -6.78125 C 4.46875 -6.875 4.78125 -6.921875 5.09375 -6.921875 C 5.40625 -6.921875 5.726562 -6.875 6.0625 -6.78125 C 6.382812 -6.6875 6.675781 -6.535156 6.9375 -6.328125 C 7.195312 -6.109375 7.410156 -5.828125 7.578125 -5.484375 C 7.742188 -5.128906 7.828125 -4.703125 7.828125 -4.203125 C 7.828125 -3.691406 7.742188 -3.265625 7.578125 -2.921875 C 7.410156 -2.578125 7.195312 -2.300781 6.9375 -2.09375 C 6.675781 -1.875 6.382812 -1.71875 6.0625 -1.625 C 5.726562 -1.519531 5.40625 -1.46875 5.09375 -1.46875 Z M 5.09375 -8.40625 C 4.476562 -8.40625 3.914062 -8.300781 3.40625 -8.09375 C 2.894531 -7.882812 2.457031 -7.597656 2.09375 -7.234375 C 1.71875 -6.859375 1.425781 -6.414062 1.21875 -5.90625 C 1.007812 -5.382812 0.90625 -4.816406 0.90625 -4.203125 C 0.90625 -3.585938 1.007812 -3.023438 1.21875 -2.515625 C 1.425781 -1.992188 1.71875 -1.546875 2.09375 -1.171875 C 2.457031 -0.796875 2.894531 -0.507812 3.40625 -0.3125 C 3.914062 -0.101562 4.476562 0 5.09375 0 C 5.71875 0 6.285156 -0.101562 6.796875 -0.3125 C 7.304688 -0.507812 7.75 -0.796875 8.125 -1.171875 C 8.488281 -1.546875 8.773438 -1.992188 8.984375 -2.515625 C 9.191406 -3.023438 9.296875 -3.585938 9.296875 -4.203125 C 9.296875 -4.816406 9.191406 -5.382812 8.984375 -5.90625 C 8.773438 -6.414062 8.488281 -6.859375 8.125 -7.234375 C 7.75 -7.597656 7.304688 -7.882812 6.796875 -8.09375 C 6.285156 -8.300781 5.71875 -8.40625 5.09375 -8.40625 Z M 5.09375 -8.40625 "/></g></g></g><g fill="#004aad" fill-opacity="1"><g transform="translate(212.306112, 253.320497)"><g><path d="M 7.28125 -2.765625 L 6.8125 -4 C 6.738281 -4.175781 6.625 -4.320312 6.46875 -4.4375 C 6.3125 -4.539062 6.132812 -4.59375 5.9375 -4.59375 C 5.75 -4.59375 5.570312 -4.539062 5.40625 -4.4375 C 5.25 -4.320312 5.132812 -4.175781 5.0625 -4 L 4.578125 -2.765625 C 4.554688 -2.703125 4.515625 -2.671875 4.453125 -2.671875 C 4.378906 -2.671875 4.332031 -2.703125 4.3125 -2.765625 L 2.296875 -7.9375 C 2.242188 -8.070312 2.160156 -8.1875 2.046875 -8.28125 C 1.910156 -8.363281 1.769531 -8.40625 1.625 -8.40625 C 1.488281 -8.40625 1.367188 -8.378906 1.265625 -8.328125 C 1.160156 -8.265625 1.078125 -8.1875 1.015625 -8.09375 C 0.941406 -8 0.898438 -7.894531 0.890625 -7.78125 C 0.867188 -7.65625 0.882812 -7.535156 0.9375 -7.421875 L 3.578125 -0.625 C 3.648438 -0.4375 3.765625 -0.289062 3.921875 -0.1875 C 4.078125 -0.0820312 4.253906 -0.03125 4.453125 -0.03125 C 4.640625 -0.03125 4.816406 -0.0820312 4.984375 -0.1875 C 5.140625 -0.289062 5.253906 -0.4375 5.328125 -0.625 L 5.796875 -1.828125 C 5.816406 -1.890625 5.863281 -1.921875 5.9375 -1.921875 C 6 -1.921875 6.046875 -1.890625 6.078125 -1.828125 L 6.546875 -0.625 C 6.609375 -0.4375 6.722656 -0.289062 6.890625 -0.1875 C 7.046875 -0.0820312 7.222656 -0.03125 7.421875 -0.03125 C 7.609375 -0.03125 7.78125 -0.0820312 7.9375 -0.1875 C 8.101562 -0.289062 8.222656 -0.4375 8.296875 -0.625 L 10.9375 -7.421875 C 10.976562 -7.535156 10.992188 -7.65625 10.984375 -7.78125 C 10.960938 -7.894531 10.921875 -8 10.859375 -8.09375 C 10.785156 -8.1875 10.695312 -8.265625 10.59375 -8.328125 C 10.488281 -8.378906 10.375 -8.40625 10.25 -8.40625 C 10.09375 -8.40625 9.957031 -8.363281 9.84375 -8.28125 C 9.707031 -8.1875 9.613281 -8.070312 9.5625 -7.9375 L 7.5625 -2.765625 C 7.539062 -2.703125 7.492188 -2.671875 7.421875 -2.671875 C 7.347656 -2.671875 7.300781 -2.703125 7.28125 -2.765625 Z M 7.28125 -2.765625 "/></g></g></g><g fill="#004aad" fill-opacity="1"><g transform="translate(224.210141, 253.320497)"><g><path d="M 5.953125 -4.3125 C 5.691406 -4.476562 5.410156 -4.601562 5.109375 -4.6875 C 4.804688 -4.769531 4.503906 -4.847656 4.203125 -4.921875 C 3.859375 -5.003906 3.578125 -5.078125 3.359375 -5.140625 C 3.140625 -5.203125 2.972656 -5.273438 2.859375 -5.359375 C 2.722656 -5.421875 2.640625 -5.5 2.609375 -5.59375 C 2.554688 -5.675781 2.53125 -5.785156 2.53125 -5.921875 L 2.53125 -5.9375 C 2.53125 -6.226562 2.664062 -6.46875 2.9375 -6.65625 C 3.207031 -6.84375 3.546875 -6.9375 3.953125 -6.9375 C 4.296875 -6.9375 4.539062 -6.898438 4.6875 -6.828125 C 4.84375 -6.753906 4.972656 -6.664062 5.078125 -6.5625 C 5.222656 -6.414062 5.398438 -6.34375 5.609375 -6.34375 C 5.804688 -6.34375 5.976562 -6.414062 6.125 -6.5625 C 6.269531 -6.707031 6.34375 -6.882812 6.34375 -7.09375 C 6.332031 -7.289062 6.253906 -7.460938 6.109375 -7.609375 C 5.816406 -7.890625 5.503906 -8.09375 5.171875 -8.21875 C 4.828125 -8.34375 4.421875 -8.40625 3.953125 -8.40625 C 3.585938 -8.40625 3.234375 -8.351562 2.890625 -8.25 C 2.535156 -8.144531 2.222656 -7.988281 1.953125 -7.78125 C 1.679688 -7.570312 1.46875 -7.316406 1.3125 -7.015625 C 1.144531 -6.703125 1.0625 -6.347656 1.0625 -5.953125 L 1.0625 -5.921875 C 1.0625 -5.503906 1.144531 -5.160156 1.3125 -4.890625 C 1.476562 -4.609375 1.691406 -4.378906 1.953125 -4.203125 C 2.222656 -4.023438 2.523438 -3.882812 2.859375 -3.78125 C 3.191406 -3.675781 3.523438 -3.582031 3.859375 -3.5 C 4.203125 -3.425781 4.488281 -3.351562 4.71875 -3.28125 C 4.9375 -3.21875 5.109375 -3.148438 5.234375 -3.078125 C 5.347656 -2.992188 5.429688 -2.90625 5.484375 -2.8125 C 5.523438 -2.71875 5.546875 -2.609375 5.546875 -2.484375 C 5.546875 -2.273438 5.492188 -2.109375 5.390625 -1.984375 C 5.273438 -1.847656 5.140625 -1.75 4.984375 -1.6875 C 4.816406 -1.613281 4.644531 -1.5625 4.46875 -1.53125 C 4.269531 -1.507812 4.09375 -1.5 3.9375 -1.5 C 3.601562 -1.5 3.332031 -1.519531 3.125 -1.5625 C 2.914062 -1.601562 2.742188 -1.648438 2.609375 -1.703125 C 2.472656 -1.753906 2.375 -1.8125 2.3125 -1.875 C 2.25 -1.925781 2.195312 -1.972656 2.15625 -2.015625 C 2.007812 -2.171875 1.828125 -2.25 1.609375 -2.25 C 1.515625 -2.25 1.429688 -2.234375 1.359375 -2.203125 C 1.265625 -2.171875 1.179688 -2.125 1.109375 -2.0625 C 0.960938 -1.925781 0.882812 -1.757812 0.875 -1.5625 C 0.863281 -1.351562 0.925781 -1.171875 1.0625 -1.015625 C 1.375 -0.671875 1.765625 -0.421875 2.234375 -0.265625 C 2.691406 -0.109375 3.257812 -0.03125 3.9375 -0.03125 C 4.5 -0.03125 4.976562 -0.101562 5.375 -0.25 C 5.757812 -0.394531 6.070312 -0.585938 6.3125 -0.828125 C 6.550781 -1.054688 6.726562 -1.320312 6.84375 -1.625 C 6.945312 -1.90625 7 -2.191406 7 -2.484375 C 7 -2.890625 6.914062 -3.242188 6.75 -3.546875 C 6.570312 -3.847656 6.347656 -4.082031 6.078125 -4.25 Z M 5.953125 -4.3125 "/></g></g></g><g fill="#004aad" fill-opacity="1"><g transform="translate(232.130161, 253.320497)"><g><path d="M 5.109375 0 C 5.316406 0 5.492188 -0.0703125 5.640625 -0.21875 C 5.773438 -0.351562 5.84375 -0.523438 5.84375 -0.734375 C 5.84375 -0.941406 5.769531 -1.117188 5.625 -1.265625 C 5.476562 -1.398438 5.300781 -1.46875 5.09375 -1.46875 L 2.8125 -1.46875 C 2.675781 -1.46875 2.566406 -1.507812 2.484375 -1.59375 C 2.398438 -1.6875 2.359375 -1.796875 2.359375 -1.921875 L 2.359375 -3.234375 C 2.359375 -3.359375 2.398438 -3.460938 2.484375 -3.546875 C 2.566406 -3.640625 2.675781 -3.6875 2.8125 -3.6875 L 4.453125 -3.6875 C 4.660156 -3.6875 4.835938 -3.757812 4.984375 -3.90625 C 5.117188 -4.039062 5.1875 -4.210938 5.1875 -4.421875 C 5.1875 -4.628906 5.113281 -4.800781 4.96875 -4.9375 C 4.820312 -5.070312 4.644531 -5.140625 4.4375 -5.140625 L 2.796875 -5.140625 C 2.671875 -5.140625 2.5625 -5.1875 2.46875 -5.28125 C 2.382812 -5.363281 2.34375 -5.472656 2.34375 -5.609375 L 2.34375 -6.46875 C 2.34375 -6.59375 2.382812 -6.703125 2.46875 -6.796875 C 2.5625 -6.878906 2.671875 -6.921875 2.796875 -6.921875 L 5.09375 -6.921875 C 5.300781 -6.921875 5.472656 -6.992188 5.609375 -7.140625 C 5.742188 -7.273438 5.8125 -7.445312 5.8125 -7.65625 C 5.8125 -7.863281 5.742188 -8.039062 5.609375 -8.1875 C 5.460938 -8.320312 5.285156 -8.390625 5.078125 -8.390625 L 1.59375 -8.390625 C 1.382812 -8.390625 1.207031 -8.316406 1.0625 -8.171875 C 0.925781 -8.023438 0.859375 -7.847656 0.859375 -7.640625 L 0.859375 -0.71875 C 0.859375 -0.507812 0.9375 -0.335938 1.09375 -0.203125 C 1.238281 -0.0664062 1.414062 0 1.625 0 Z M 5.109375 0 "/></g></g></g><g fill="#004aad" fill-opacity="1"><g transform="translate(238.886169, 253.320497)"><g><path d="M 2.359375 -6.46875 C 2.359375 -6.59375 2.398438 -6.703125 2.484375 -6.796875 C 2.566406 -6.878906 2.675781 -6.921875 2.8125 -6.921875 L 3.625 -6.921875 C 3.675781 -6.921875 3.757812 -6.914062 3.875 -6.90625 C 3.988281 -6.882812 4.109375 -6.84375 4.234375 -6.78125 C 4.359375 -6.71875 4.46875 -6.617188 4.5625 -6.484375 C 4.65625 -6.347656 4.703125 -6.160156 4.703125 -5.921875 C 4.703125 -5.679688 4.65625 -5.492188 4.5625 -5.359375 C 4.46875 -5.210938 4.359375 -5.109375 4.234375 -5.046875 C 4.109375 -4.984375 3.988281 -4.945312 3.875 -4.9375 C 3.757812 -4.914062 3.675781 -4.90625 3.625 -4.90625 L 2.8125 -4.90625 C 2.675781 -4.90625 2.566406 -4.953125 2.484375 -5.046875 C 2.398438 -5.128906 2.359375 -5.234375 2.359375 -5.359375 Z M 5.40625 -4.0625 C 5.9375 -4.539062 6.203125 -5.160156 6.203125 -5.921875 C 6.203125 -6.285156 6.140625 -6.617188 6.015625 -6.921875 C 5.878906 -7.222656 5.695312 -7.488281 5.46875 -7.71875 C 5.238281 -7.9375 4.96875 -8.109375 4.65625 -8.234375 C 4.34375 -8.347656 4.003906 -8.40625 3.640625 -8.40625 L 1.640625 -8.40625 C 1.429688 -8.40625 1.253906 -8.335938 1.109375 -8.203125 C 0.972656 -8.054688 0.90625 -7.878906 0.90625 -7.671875 L 0.90625 -0.75 C 0.90625 -0.539062 0.972656 -0.363281 1.109375 -0.21875 C 1.242188 -0.0703125 1.414062 0 1.625 0 C 1.832031 0 2.007812 -0.0703125 2.15625 -0.21875 C 2.289062 -0.351562 2.359375 -0.523438 2.359375 -0.734375 L 2.359375 -3.03125 C 2.359375 -3.144531 2.394531 -3.238281 2.46875 -3.3125 C 2.539062 -3.382812 2.632812 -3.421875 2.75 -3.421875 C 2.925781 -3.421875 3.066406 -3.34375 3.171875 -3.1875 L 4.890625 -0.34375 C 5.035156 -0.113281 5.242188 0 5.515625 0 C 5.660156 0 5.789062 -0.0351562 5.90625 -0.109375 C 6.019531 -0.179688 6.109375 -0.273438 6.171875 -0.390625 C 6.222656 -0.492188 6.25 -0.613281 6.25 -0.75 C 6.25 -0.875 6.210938 -0.992188 6.140625 -1.109375 L 4.71875 -3.4375 C 4.695312 -3.476562 4.691406 -3.523438 4.703125 -3.578125 C 4.722656 -3.617188 4.75 -3.648438 4.78125 -3.671875 C 5 -3.765625 5.203125 -3.894531 5.390625 -4.0625 Z M 5.40625 -4.0625 "/></g></g></g></svg>